<?xml version="1.0" encoding="UTF-8"?>
<svg xmlns="http://www.w3.org/2000/svg" xmlns:xlink="http://www.w3.org/1999/xlink" width="496px" height="496px" viewBox="0 0 496 496" version="1.1">
<g id="surface1">
<path style=" stroke:none;fill-rule:nonzero;fill:rgb(0%,58.823532%,83.92157%);fill-opacity:1;" d="M 22.011719 261.074219 C 22.050781 258.144531 20.90625 255.320312 18.832031 253.246094 C 16.761719 251.171875 13.9375 250.027344 11.003906 250.070312 C 8.074219 250.027344 5.25 251.171875 3.175781 253.246094 C 1.105469 255.320312 -0.0429688 258.144531 0 261.074219 L 0 283.78125 C -0.0429688 286.714844 1.105469 289.535156 3.175781 291.609375 C 5.25 293.683594 8.074219 294.828125 11.003906 294.785156 C 13.9375 294.828125 16.761719 293.683594 18.832031 291.609375 C 20.90625 289.535156 22.050781 286.714844 22.011719 283.78125 Z M 22.011719 261.074219 "/>
<path style=" stroke:none;fill-rule:nonzero;fill:rgb(0%,58.823532%,83.92157%);fill-opacity:1;" d="M 81.171875 231.414062 C 81.214844 228.484375 80.070312 225.660156 77.996094 223.585938 C 75.921875 221.515625 73.101562 220.367188 70.167969 220.410156 C 63.96875 220.410156 59.859375 225.214844 59.859375 231.414062 L 59.859375 283.695312 C 59.820312 286.628906 60.964844 289.453125 63.039062 291.523438 C 65.109375 293.597656 67.933594 294.742188 70.867188 294.703125 C 73.796875 294.742188 76.621094 293.597656 78.695312 291.523438 C 80.765625 289.453125 81.914062 286.628906 81.871094 283.695312 L 81.871094 231.414062 Z M 141.027344 190.898438 C 141.070312 187.964844 139.921875 185.144531 137.851562 183.070312 C 135.777344 180.996094 132.953125 179.851562 130.023438 179.894531 C 127.089844 179.851562 124.265625 180.996094 122.195312 183.070312 C 120.121094 185.144531 118.972656 187.964844 119.015625 190.898438 L 119.015625 305.09375 C 118.972656 308.027344 120.121094 310.847656 122.195312 312.921875 C 124.265625 314.996094 127.089844 316.140625 130.023438 316.097656 C 132.953125 316.140625 135.777344 314.996094 137.851562 312.921875 C 139.921875 310.847656 141.070312 308.027344 141.027344 305.09375 Z M 200.261719 231.414062 C 200.300781 228.484375 199.15625 225.660156 197.082031 223.585938 C 195.011719 221.515625 192.1875 220.367188 189.253906 220.410156 C 186.324219 220.367188 183.5 221.515625 181.425781 223.585938 C 179.355469 225.660156 178.207031 228.484375 178.25 231.414062 L 178.25 283.695312 C 178.207031 286.628906 179.355469 289.453125 181.425781 291.523438 C 183.5 293.597656 186.324219 294.742188 189.253906 294.703125 C 192.1875 294.742188 195.011719 293.597656 197.082031 291.523438 C 199.15625 289.453125 200.300781 286.628906 200.261719 283.695312 Z M 200.261719 231.414062 "/>
<path style=" stroke:none;fill-rule:nonzero;fill:rgb(0%,58.823532%,83.92157%);fill-opacity:1;" d="M 259.355469 261.074219 C 259.394531 258.144531 258.25 255.320312 256.175781 253.246094 C 254.105469 251.171875 251.28125 250.027344 248.347656 250.070312 C 245.417969 250.027344 242.59375 251.171875 240.519531 253.246094 C 238.449219 255.320312 237.300781 258.144531 237.34375 261.074219 L 237.34375 283.78125 C 237.300781 286.714844 238.449219 289.535156 240.519531 291.609375 C 242.59375 293.683594 245.417969 294.828125 248.347656 294.785156 C 251.28125 294.828125 254.105469 293.683594 256.175781 291.609375 C 258.25 289.535156 259.394531 286.714844 259.355469 283.78125 Z M 259.355469 261.074219 "/>
<path style=" stroke:none;fill-rule:nonzero;fill:rgb(0%,58.823532%,83.92157%);fill-opacity:1;" d="M 318.523438 231.414062 C 318.523438 225.335938 313.597656 220.40625 307.515625 220.40625 C 301.4375 220.40625 296.507812 225.335938 296.507812 231.414062 L 296.507812 283.695312 C 296.507812 289.777344 301.4375 294.707031 307.515625 294.707031 C 313.597656 294.707031 318.523438 289.777344 318.523438 283.695312 Z M 377.671875 190.898438 C 377.671875 184.816406 372.746094 179.890625 366.664062 179.890625 C 360.585938 179.890625 355.65625 184.816406 355.65625 190.898438 L 355.65625 305.09375 C 355.65625 311.175781 360.585938 316.101562 366.664062 316.101562 C 372.746094 316.101562 377.671875 311.175781 377.671875 305.09375 Z M 436.835938 231.414062 C 436.835938 225.335938 431.90625 220.40625 425.828125 220.40625 C 419.746094 220.40625 414.820312 225.335938 414.820312 231.414062 L 414.820312 283.695312 C 414.820312 289.777344 419.746094 294.707031 425.828125 294.707031 C 431.90625 294.707031 436.835938 289.777344 436.835938 283.695312 Z M 496 261.074219 C 496 254.996094 491.074219 250.070312 484.996094 250.070312 C 478.917969 250.070312 473.988281 254.996094 473.988281 261.074219 L 473.988281 283.78125 C 473.988281 289.859375 478.917969 294.785156 484.996094 294.785156 C 491.074219 294.785156 496 289.859375 496 283.78125 Z M 496 261.074219 "/>
</g>
</svg>
